<svg width="166" height="36" viewBox="0 0 166 36" fill="none" xmlns="http://www.w3.org/2000/svg">
<path d="M35.9999 35.9999H0V0H35.9999V35.9999ZM1.0319 35.0576H34.9686V0.943937H1.0319V35.0576Z" fill="white"/>
<path d="M12.4372 27.2162L10.1165 23.5648L20.0199 12.3203L10.1165 12.3198V8.64294H23.2577L25.8797 11.9586L15.6756 23.5383H25.8756V27.2162H12.4372Z" fill="#336CDA"/>
<path d="M56.9467 18V20.8037H44.2491V18.5887L52.3194 8.63549H44.4144V5.83176H56.7263V8.04671L48.6286 18H56.9467Z" fill="white"/>
<path d="M65.7393 5.66354C67.9061 5.66354 69.5587 6.19625 70.6971 7.26167C71.854 8.30839 72.4324 9.89717 72.4324 12.028V20.8037H69.1822V18.9813C68.7599 19.6355 68.154 20.1401 67.3644 20.4953C66.5932 20.8317 65.6567 20.9999 64.5549 20.9999C63.4532 20.9999 62.4892 20.813 61.6629 20.4392C60.8366 20.0467 60.1939 19.514 59.7348 18.8411C59.2941 18.1495 59.0738 17.3738 59.0738 16.514C59.0738 15.1682 59.5604 14.0934 60.5336 13.2897C61.5252 12.4673 63.0768 12.056 65.1884 12.056H68.9894V11.8317C68.9894 10.785 68.6773 9.98128 68.053 9.42054C67.447 8.85979 66.5381 8.57942 65.3262 8.57942C64.4998 8.57942 63.6827 8.71026 62.8748 8.97194C62.0852 9.23362 61.415 9.59811 60.8641 10.0654L59.5145 7.514C60.2857 6.91587 61.213 6.45793 62.2964 6.14017C63.3797 5.82242 64.5274 5.66354 65.7393 5.66354ZM65.2711 18.4486C66.1341 18.4486 66.8961 18.2523 67.5572 17.8598C68.2366 17.4486 68.714 16.8691 68.9894 16.1215V14.3831H65.4363C63.4532 14.3831 62.4616 15.0467 62.4616 16.3738C62.4616 17.0093 62.7095 17.514 63.2053 17.8878C63.7011 18.2616 64.3897 18.4486 65.2711 18.4486Z" fill="white"/>
<path d="M82.8554 14.3831L80.2939 16.8504V20.8037H76.851V0H80.2939V12.5607L87.4277 5.83176H91.5592L85.417 12.1121L92.1376 20.8037H87.951L82.8554 14.3831Z" fill="white"/>
<path d="M100.353 20.9999C98.8659 20.9999 97.5255 20.6728 96.3319 20.0186C95.1384 19.3644 94.2019 18.4579 93.5225 17.299C92.8615 16.1215 92.5309 14.7944 92.5309 13.3177C92.5309 11.8411 92.8615 10.5233 93.5225 9.36446C94.2019 8.20559 95.1384 7.29905 96.3319 6.64484C97.5255 5.99064 98.8659 5.66354 100.353 5.66354C101.859 5.66354 103.209 5.99064 104.402 6.64484C105.596 7.29905 106.523 8.20559 107.184 9.36446C107.863 10.5233 108.203 11.8411 108.203 13.3177C108.203 14.7944 107.863 16.1215 107.184 17.299C106.523 18.4579 105.596 19.3644 104.402 20.0186C103.209 20.6728 101.859 20.9999 100.353 20.9999ZM100.353 18C101.62 18 102.667 17.5701 103.493 16.7102C104.32 15.8504 104.733 14.7196 104.733 13.3177C104.733 11.9159 104.32 10.785 103.493 9.92521C102.667 9.0654 101.62 8.63549 100.353 8.63549C99.0863 8.63549 98.0396 9.0654 97.2133 9.92521C96.4054 10.785 96.0014 11.9159 96.0014 13.3177C96.0014 14.7196 96.4054 15.8504 97.2133 16.7102C98.0396 17.5701 99.0863 18 100.353 18Z" fill="white"/>
<path d="M119.841 5.66354C121.696 5.66354 123.183 6.21494 124.303 7.31774C125.423 8.42054 125.983 10.0561 125.983 12.2243V20.8037H122.54V12.6729C122.54 11.3645 122.237 10.3832 121.632 9.72895C121.026 9.05605 120.163 8.71961 119.042 8.71961C117.775 8.71961 116.775 9.11213 116.04 9.89717C115.306 10.6635 114.938 11.7757 114.938 13.2336V20.8037H111.495V5.83176H114.773V7.76634C115.342 7.07475 116.059 6.55139 116.922 6.19625C117.785 5.84111 118.758 5.66354 119.841 5.66354Z" fill="white"/>
<path d="M131.453 20.9999C130.828 20.9999 130.296 20.785 129.855 20.3551C129.414 19.9065 129.194 19.3457 129.194 18.6729C129.194 17.9813 129.405 17.4205 129.828 16.9906C130.268 16.5607 130.81 16.3458 131.453 16.3458C132.095 16.3458 132.628 16.5607 133.05 16.9906C133.491 17.4205 133.711 17.9813 133.711 18.6729C133.711 19.3457 133.491 19.9065 133.05 20.3551C132.61 20.785 132.077 20.9999 131.453 20.9999Z" fill="white"/>
<path d="M143.08 14.3831L140.518 16.8504V20.8037H137.075V0H140.518V12.5607L147.652 5.83176H151.784L145.641 12.1121L152.362 20.8037H148.175L143.08 14.3831Z" fill="white"/>
<path d="M165.749 18V20.8037H153.051V18.5887L161.122 8.63549H153.217V5.83176H165.529V8.04671L157.431 18H165.749Z" fill="white"/>
<path d="M46.7196 34.8892C46.2456 34.8892 45.8201 34.786 45.4434 34.5797C45.0726 34.3733 44.7809 34.085 44.5682 33.7147C44.3555 33.3384 44.2491 32.9165 44.2491 32.4492C44.2491 31.9818 44.3555 31.563 44.5682 31.1927C44.7809 30.8225 45.0726 30.5341 45.4434 30.3278C45.8201 30.1214 46.2456 30.0182 46.7196 30.0182C47.1329 30.0182 47.5005 30.1002 47.8226 30.264C48.1508 30.4218 48.4091 30.6555 48.5975 30.9651L48.1144 31.2929C47.9563 31.0561 47.7558 30.8801 47.5127 30.7648C47.2696 30.6434 47.0052 30.5827 46.7196 30.5827C46.3732 30.5827 46.0602 30.6616 45.7806 30.8194C45.5072 30.9712 45.2914 31.1897 45.1334 31.475C44.9815 31.7602 44.9055 32.085 44.9055 32.4492C44.9055 32.8194 44.9815 33.1472 45.1334 33.4325C45.2914 33.7117 45.5072 33.9302 45.7806 34.088C46.0602 34.2397 46.3732 34.3156 46.7196 34.3156C47.0052 34.3156 47.2696 34.258 47.5127 34.1426C47.7558 34.0273 47.9563 33.8513 48.1144 33.6146L48.5975 33.9423C48.4091 34.2519 48.1508 34.4886 47.8226 34.6525C47.4945 34.8103 47.1268 34.8892 46.7196 34.8892Z" fill="white"/>
<path d="M57.0027 32.6495H52.9916C53.0281 33.1472 53.2195 33.5508 53.566 33.8604C53.9124 34.1639 54.3499 34.3156 54.8787 34.3156C55.1765 34.3156 55.4499 34.264 55.6991 34.1608C55.9483 34.0516 56.164 33.8938 56.3464 33.6874L56.711 34.1062C56.4983 34.3611 56.2309 34.5554 55.9088 34.6889C55.5928 34.8224 55.2433 34.8892 54.8604 34.8892C54.3682 34.8892 53.9306 34.786 53.5477 34.5797C53.1709 34.3672 52.8762 34.0759 52.6635 33.7056C52.4508 33.3353 52.3444 32.9165 52.3444 32.4492C52.3444 31.9818 52.4447 31.563 52.6452 31.1927C52.8519 30.8225 53.1314 30.5341 53.4839 30.3278C53.8425 30.1214 54.2436 30.0182 54.6872 30.0182C55.1309 30.0182 55.529 30.1214 55.8814 30.3278C56.2339 30.5341 56.5104 30.8225 56.711 31.1927C56.9116 31.5569 57.0118 31.9757 57.0118 32.4492L57.0027 32.6495ZM54.6872 30.5736C54.2254 30.5736 53.8364 30.7223 53.5204 31.0197C53.2104 31.3111 53.0342 31.6935 52.9916 32.1669H56.3919C56.3494 31.6935 56.1701 31.3111 55.8541 31.0197C55.5441 30.7223 55.1552 30.5736 54.6872 30.5736Z" fill="white"/>
<path d="M64.6425 30.6282H62.8284V34.8437H62.1812V30.6282H60.3671V30.0546H64.6425V30.6282Z" fill="white"/>
<path d="M72.5879 32.6495H68.5768C68.6133 33.1472 68.8047 33.5508 69.1511 33.8604C69.4975 34.1639 69.9351 34.3156 70.4638 34.3156C70.7616 34.3156 71.0351 34.264 71.2843 34.1608C71.5334 34.0516 71.7492 33.8938 71.9315 33.6874L72.2962 34.1062C72.0835 34.3611 71.816 34.5554 71.4939 34.6889C71.1779 34.8224 70.8285 34.8892 70.4456 34.8892C69.9533 34.8892 69.5158 34.786 69.1329 34.5797C68.7561 34.3672 68.4613 34.0759 68.2486 33.7056C68.0359 33.3353 67.9296 32.9165 67.9296 32.4492C67.9296 31.9818 68.0298 31.563 68.2304 31.1927C68.437 30.8225 68.7166 30.5341 69.0691 30.3278C69.4276 30.1214 69.8287 30.0182 70.2724 30.0182C70.716 30.0182 71.1141 30.1214 71.4666 30.3278C71.8191 30.5341 72.0956 30.8225 72.2962 31.1927C72.4967 31.5569 72.597 31.9757 72.597 32.4492L72.5879 32.6495ZM70.2724 30.5736C69.8105 30.5736 69.4216 30.7223 69.1055 31.0197C68.7956 31.3111 68.6193 31.6935 68.5768 32.1669H71.9771C71.9346 31.6935 71.7553 31.3111 71.4392 31.0197C71.1293 30.7223 70.7404 30.5736 70.2724 30.5736Z" fill="white"/>
<path d="M80.1223 32.3672C80.7726 32.519 81.0977 32.9105 81.0977 33.5417C81.0977 33.9605 80.9427 34.2822 80.6328 34.5068C80.3228 34.7314 79.861 34.8437 79.2471 34.8437H77.0684V30.0546H79.1833C79.7303 30.0546 80.1587 30.1608 80.4687 30.3733C80.7786 30.5857 80.9336 30.8892 80.9336 31.2838C80.9336 31.5448 80.8607 31.7693 80.7148 31.9575C80.575 32.1396 80.3775 32.2762 80.1223 32.3672ZM77.6974 32.1851H79.1377C79.5085 32.1851 79.7911 32.1153 79.9855 31.9757C80.1861 31.8361 80.2864 31.6328 80.2864 31.3657C80.2864 31.0986 80.1861 30.8983 79.9855 30.7648C79.7911 30.6313 79.5085 30.5645 79.1377 30.5645H77.6974V32.1851ZM79.2198 34.3338C79.6331 34.3338 79.943 34.2671 80.1496 34.1335C80.3563 34 80.4596 33.7906 80.4596 33.5053C80.4596 33.22 80.3654 33.0106 80.177 32.8771C79.9886 32.7375 79.6908 32.6677 79.2836 32.6677H77.6974V34.3338H79.2198Z" fill="white"/>
<path d="M87.6315 34.8892C87.1696 34.8892 86.7533 34.786 86.3826 34.5797C86.0119 34.3672 85.7201 34.0759 85.5074 33.7056C85.2947 33.3353 85.1884 32.9165 85.1884 32.4492C85.1884 31.9818 85.2947 31.563 85.5074 31.1927C85.7201 30.8225 86.0119 30.5341 86.3826 30.3278C86.7533 30.1214 87.1696 30.0182 87.6315 30.0182C88.0934 30.0182 88.5097 30.1214 88.8804 30.3278C89.2511 30.5341 89.5398 30.8225 89.7464 31.1927C89.9591 31.563 90.0655 31.9818 90.0655 32.4492C90.0655 32.9165 89.9591 33.3353 89.7464 33.7056C89.5398 34.0759 89.2511 34.3672 88.8804 34.5797C88.5097 34.786 88.0934 34.8892 87.6315 34.8892ZM87.6315 34.3156C87.9718 34.3156 88.2757 34.2397 88.5431 34.088C88.8166 33.9302 89.0293 33.7086 89.1812 33.4234C89.3331 33.1381 89.4091 32.8133 89.4091 32.4492C89.4091 32.085 89.3331 31.7602 89.1812 31.475C89.0293 31.1897 88.8166 30.9712 88.5431 30.8194C88.2757 30.6616 87.9718 30.5827 87.6315 30.5827C87.2911 30.5827 86.9842 30.6616 86.7108 30.8194C86.4433 30.9712 86.2306 31.1897 86.0726 31.475C85.9207 31.7602 85.8447 32.085 85.8447 32.4492C85.8447 32.8133 85.9207 33.1381 86.0726 33.4234C86.2306 33.7086 86.4433 33.9302 86.7108 34.088C86.9842 34.2397 87.2911 34.3156 87.6315 34.3156Z" fill="white"/>
<path d="M98.6808 32.6495H94.6698C94.7062 33.1472 94.8977 33.5508 95.2441 33.8604C95.5905 34.1639 96.0281 34.3156 96.5568 34.3156C96.8546 34.3156 97.1281 34.264 97.3772 34.1608C97.6264 34.0516 97.8422 33.8938 98.0245 33.6874L98.3891 34.1062C98.1764 34.3611 97.909 34.5554 97.5869 34.6889C97.2709 34.8224 96.9214 34.8892 96.5386 34.8892C96.0463 34.8892 95.6087 34.786 95.2258 34.5797C94.8491 34.3672 94.5543 34.0759 94.3416 33.7056C94.1289 33.3353 94.0225 32.9165 94.0225 32.4492C94.0225 31.9818 94.1228 31.563 94.3234 31.1927C94.53 30.8225 94.8096 30.5341 95.162 30.3278C95.5206 30.1214 95.9217 30.0182 96.3654 30.0182C96.809 30.0182 97.2071 30.1214 97.5596 30.3278C97.9121 30.5341 98.1886 30.8225 98.3891 31.1927C98.5897 31.5569 98.69 31.9757 98.69 32.4492L98.6808 32.6495ZM96.3654 30.5736C95.9035 30.5736 95.5145 30.7223 95.1985 31.0197C94.8886 31.3111 94.7123 31.6935 94.6698 32.1669H98.0701C98.0275 31.6935 97.8482 31.3111 97.5322 31.0197C97.2223 30.7223 96.8333 30.5736 96.3654 30.5736Z" fill="white"/>
<path d="M108.586 30.0546H109.233V33.8604L112.433 30.0546H113.007V34.8437H112.36V31.0379L109.169 34.8437H108.586V30.0546Z" fill="white"/>
<path d="M120.137 32.349C120.477 32.4279 120.738 32.5645 120.921 32.7587C121.109 32.953 121.203 33.1897 121.203 33.4689C121.203 33.7481 121.106 33.997 120.911 34.2155C120.723 34.434 120.465 34.6039 120.137 34.7253C119.808 34.8407 119.447 34.8983 119.052 34.8983C118.705 34.8983 118.365 34.8498 118.031 34.7526C117.697 34.6495 117.405 34.5007 117.156 34.3065L117.374 33.824C117.593 33.9879 117.848 34.1153 118.14 34.2064C118.432 34.2974 118.727 34.3429 119.024 34.3429C119.468 34.3429 119.83 34.261 120.109 34.0971C120.395 33.9272 120.538 33.6995 120.538 33.4143C120.538 33.1593 120.422 32.9621 120.191 32.8225C119.96 32.6768 119.644 32.6039 119.243 32.6039H118.423V32.1305H119.207C119.565 32.1305 119.854 32.0637 120.073 31.9302C120.292 31.7906 120.401 31.6055 120.401 31.3748C120.401 31.1199 120.276 30.9196 120.027 30.7739C119.784 30.6282 119.465 30.5554 119.07 30.5554C118.553 30.5554 118.043 30.6859 117.538 30.9469L117.356 30.4461C117.927 30.1487 118.52 30 119.134 30C119.498 30 119.827 30.0546 120.118 30.1639C120.416 30.2671 120.647 30.4158 120.811 30.61C120.981 30.8042 121.066 31.0288 121.066 31.2838C121.066 31.5266 120.981 31.742 120.811 31.9302C120.647 32.1184 120.422 32.258 120.137 32.349Z" fill="white"/>
<path d="M130.388 34.2792V36H129.777V34.8437H125.483V36H124.872V34.2792H125.146C125.468 34.261 125.687 34.0243 125.802 33.569C125.918 33.1138 125.997 32.4765 126.039 31.6571L126.103 30.0546H129.64V34.2792H130.388ZM126.632 31.6935C126.602 32.3733 126.544 32.9347 126.459 33.3778C126.374 33.8149 126.222 34.1153 126.003 34.2792H128.993V30.6282H126.687L126.632 31.6935Z" fill="white"/>
<path d="M136.338 30.0182C136.964 30.0182 137.444 30.176 137.778 30.4917C138.112 30.8012 138.28 31.2625 138.28 31.8756V34.8437H137.66V34.0971C137.514 34.346 137.298 34.5402 137.012 34.6798C136.733 34.8194 136.399 34.8892 136.01 34.8892C135.475 34.8892 135.049 34.7617 134.733 34.5068C134.417 34.2519 134.259 33.915 134.259 33.4962C134.259 33.0895 134.405 32.7618 134.697 32.5129C134.995 32.264 135.466 32.1396 136.11 32.1396H137.632V31.8483C137.632 31.4355 137.517 31.1229 137.286 30.9105C137.055 30.692 136.718 30.5827 136.274 30.5827C135.97 30.5827 135.678 30.6343 135.399 30.7375C135.119 30.8346 134.879 30.9712 134.679 31.1472L134.387 30.6646C134.63 30.4583 134.922 30.3005 135.262 30.1912C135.602 30.0759 135.961 30.0182 136.338 30.0182ZM136.11 34.3794C136.475 34.3794 136.788 34.2974 137.049 34.1335C137.31 33.9636 137.505 33.7208 137.632 33.4052V32.6221H136.128C135.308 32.6221 134.897 32.9074 134.897 33.478C134.897 33.7572 135.004 33.9787 135.217 34.1426C135.429 34.3004 135.727 34.3794 136.11 34.3794Z" fill="white"/>
<path d="M143.041 30.0546H143.688V32.176H146.706V30.0546H147.353V34.8437H146.706V32.7314H143.688V34.8437H143.041V30.0546Z" fill="white"/>
<path d="M152.231 30.0546H152.879V33.8604L156.078 30.0546H156.653V34.8437H156.006V31.0379L152.815 34.8437H152.231V30.0546Z" fill="white"/>
<path d="M165.74 32.6495H161.729C161.765 33.1472 161.957 33.5508 162.303 33.8604C162.649 34.1639 163.087 34.3156 163.616 34.3156C163.913 34.3156 164.187 34.264 164.436 34.1608C164.685 34.0516 164.901 33.8938 165.083 33.6874L165.448 34.1062C165.235 34.3611 164.968 34.5554 164.646 34.6889C164.33 34.8224 163.98 34.8892 163.597 34.8892C163.105 34.8892 162.668 34.786 162.285 34.5797C161.908 34.3672 161.613 34.0759 161.4 33.7056C161.188 33.3353 161.081 32.9165 161.081 32.4492C161.081 31.9818 161.182 31.563 161.382 31.1927C161.589 30.8225 161.868 30.5341 162.221 30.3278C162.58 30.1214 162.981 30.0182 163.424 30.0182C163.868 30.0182 164.266 30.1214 164.618 30.3278C164.971 30.5341 165.247 30.8225 165.448 31.1927C165.649 31.5569 165.749 31.9757 165.749 32.4492L165.74 32.6495ZM163.424 30.5736C162.962 30.5736 162.573 30.7223 162.257 31.0197C161.947 31.3111 161.771 31.6935 161.729 32.1669H165.129C165.086 31.6935 164.907 31.3111 164.591 31.0197C164.281 30.7223 163.892 30.5736 163.424 30.5736Z" fill="white"/>
</svg>
